<svg xmlns="http://www.w3.org/2000/svg" viewBox="0 0 200 260">
  <defs><linearGradient id="f" x1="0" y1="0" x2="0.4" y2="1"><stop offset="0" stop-color="#3D7BFF"/><stop offset="1" stop-color="#1A4FD6"/></linearGradient></defs>
  <path d="M30 10H170Q190 10 190 30V170Q190 205 100 250Q10 205 10 170V30Q10 10 30 10Z" fill="url(#f)"/>
  <path d="M36 20H164Q180 20 180 36V168Q180 198 100 238Q20 198 20 168V36Q20 20 36 20Z" fill="none" stroke="#EAF2FF" stroke-opacity=".6" stroke-width="6"/>
  <polygon points="58,190 82,60 108,60 128,138 143,60 168,60 144,190 118,190 98,112 84,190" transform="translate(-14 0)" fill="#EAF2FF"/>
</svg>
